<?xml version="1.0" standalone="no"?>
<!DOCTYPE svg PUBLIC "-//W3C//DTD SVG 20010904//EN"
 "http://www.w3.org/TR/2001/REC-SVG-20010904/DTD/svg10.dtd">
<svg version="1.0" xmlns="http://www.w3.org/2000/svg"
 width="512.000000pt" height="512.000000pt" viewBox="0 0 512.000000 512.000000"
 preserveAspectRatio="xMidYMid meet">
<metadata>
Created by potrace 1.11, written by Peter Selinger 2001-2013
</metadata>
<g transform="translate(0.000000,512.000000) scale(0.100000,-0.100000)"
fill="#000000" stroke="none">
<path d="M3184 5024 c-7 -3 -31 -60 -54 -127 -24 -67 -50 -129 -59 -138 -9 -9
-64 -38 -123 -65 -59 -26 -110 -55 -113 -62 -9 -25 20 -56 71 -76 124 -49 174
-78 181 -105 3 -14 9 -30 12 -36 4 -5 20 -48 36 -95 51 -153 74 -152 129 2 47
132 63 168 75 168 22 0 219 99 224 113 10 27 -24 53 -135 103 -120 54 -100 28
-169 219 -35 99 -44 111 -75 99z"/>
<path d="M1269 4731 c-34 -27 -32 -87 4 -116 39 -30 83 -22 108 19 25 41 24
62 -6 91 -29 30 -73 33 -106 6z"/>
<path d="M590 4355 c-46 -21 -68 -42 -92 -89 -60 -117 26 -259 157 -260 62 0
120 31 155 81 36 53 35 144 -2 200 -45 68 -147 100 -218 68z"/>
<path d="M2037 4106 c-131 -47 -315 -267 -561 -674 -31 -51 -56 -95 -56 -98 0
-4 -13 -26 -30 -51 -16 -24 -30 -46 -30 -48 0 -2 -17 -34 -38 -72 -43 -75
-100 -181 -174 -318 -55 -103 -363 -721 -433 -870 -55 -116 -121 -257 -140
-300 -7 -16 -38 -82 -67 -145 -30 -63 -72 -154 -93 -202 l-40 -88 -55 -1
c-123 -1 -166 -6 -197 -22 -46 -24 -81 -60 -103 -104 -18 -35 -19 -65 -19
-446 0 -362 1 -411 16 -445 23 -49 85 -106 130 -120 26 -8 701 -11 2417 -11
l2382 0 49 23 c57 26 98 73 114 131 15 56 15 800 -1 846 -33 99 -114 148 -243
147 -172 0 -160 -3 -161 40 -2 48 -19 80 -83 161 -28 35 -51 67 -51 71 0 3 12
13 26 20 42 23 76 92 77 155 1 52 -17 91 -68 153 -8 9 -37 46 -65 81 l-51 64
36 37 c30 31 37 46 42 92 7 71 -1 85 -157 283 -165 209 -215 261 -261 270 -38
7 -103 -7 -130 -28 -8 -6 -70 -82 -138 -167 -67 -85 -137 -172 -154 -193 -50
-60 -67 -98 -67 -147 0 -48 25 -100 63 -130 18 -15 19 -19 7 -32 -8 -9 -40
-47 -70 -87 -30 -39 -58 -71 -63 -71 -4 0 -11 10 -16 23 -31 78 -400 825 -507
1027 -474 889 -756 1261 -953 1260 -26 -1 -63 -7 -84 -14z"/>
<path d="M4423 4072 c-7 -4 -27 -48 -44 -97 -17 -50 -36 -95 -43 -101 -6 -6
-45 -26 -86 -45 -117 -52 -118 -66 -12 -114 42 -19 83 -38 91 -43 8 -5 30 -51
48 -102 52 -147 63 -144 123 33 l22 65 85 38 c86 38 113 63 90 82 -16 12 -146
72 -157 72 -13 0 -23 22 -55 115 -30 87 -44 108 -62 97z"/>
</g>
</svg>
